<?xml version="1.0" encoding="utf-8" standalone="no"?>
<!DOCTYPE svg PUBLIC "-//W3C//DTD SVG 1.1//EN"
  "http://www.w3.org/Graphics/SVG/1.1/DTD/svg11.dtd">
<!-- Created with matplotlib (http://matplotlib.org/) -->
<svg height="432pt" version="1.1" viewBox="0 0 864 432" width="864pt" xmlns="http://www.w3.org/2000/svg" xmlns:xlink="http://www.w3.org/1999/xlink">
 <defs>
  <style type="text/css">
*{stroke-linecap:butt;stroke-linejoin:round;}
  </style>
 </defs>
 <g id="figure_1">
  <g id="patch_1">
   <path d="M 0 432 
L 864 432 
L 864 0 
L 0 0 
z
" style="fill:#ffffff;"/>
  </g>
  <g id="axes_1">
   <g id="patch_2">
    <path d="M 49.39 404.12 
L 281.415079 404.12 
L 281.415079 26.88 
L 49.39 26.88 
z
" style="fill:#ffffff;"/>
   </g>
   <g id="matplotlib.axis_1">
    <g id="xtick_1">
     <g id="line2d_1">
      <path clip-path="url(#p41521a1c4c)" d="M 49.279459 404.12 
L 49.279459 26.88 
" style="fill:none;stroke:#b0b0b0;stroke-linecap:square;stroke-width:0.8;"/>
     </g>
     <g id="line2d_2">
      <defs>
       <path d="M 0 0 
L 0 3.5 
" id="m749c84a1df" style="stroke:#000000;stroke-width:0.8;"/>
      </defs>
      <g>
       <use style="stroke:#000000;stroke-width:0.8;" x="49.279459" xlink:href="#m749c84a1df" y="404.12"/>
      </g>
     </g>
     <g id="text_1">
      <!-- 0 -->
      <defs>
       <path d="M 31.78125 66.40625 
Q 24.171875 66.40625 20.328125 58.90625 
Q 16.5 51.421875 16.5 36.375 
Q 16.5 21.390625 20.328125 13.890625 
Q 24.171875 6.390625 31.78125 6.390625 
Q 39.453125 6.390625 43.28125 13.890625 
Q 47.125 21.390625 47.125 36.375 
Q 47.125 51.421875 43.28125 58.90625 
Q 39.453125 66.40625 31.78125 66.40625 
M 31.78125 74.21875 
Q 44.046875 74.21875 50.515625 64.515625 
Q 56.984375 54.828125 56.984375 36.375 
Q 56.984375 17.96875 50.515625 8.265625 
Q 44.046875 -1.421875 31.78125 -1.421875 
Q 19.53125 -1.421875 13.0625 8.265625 
Q 6.59375 17.96875 6.59375 36.375 
Q 6.59375 54.828125 13.0625 64.515625 
Q 19.53125 74.21875 31.78125 74.21875 
" id="DejaVuSans-30"/>
      </defs>
      <g transform="translate(46.098209 418.718437)scale(0.1 -0.1)">
       <use xlink:href="#DejaVuSans-30"/>
      </g>
     </g>
    </g>
    <g id="xtick_2">
     <g id="line2d_3">
      <path clip-path="url(#p41521a1c4c)" d="M 104.549845 404.12 
L 104.549845 26.88 
" style="fill:none;stroke:#b0b0b0;stroke-linecap:square;stroke-width:0.8;"/>
     </g>
     <g id="line2d_4">
      <g>
       <use style="stroke:#000000;stroke-width:0.8;" x="104.549845" xlink:href="#m749c84a1df" y="404.12"/>
      </g>
     </g>
     <g id="text_2">
      <!-- 500 -->
      <defs>
       <path d="M 10.796875 72.90625 
L 49.515625 72.90625 
L 49.515625 64.59375 
L 19.828125 64.59375 
L 19.828125 46.734375 
Q 21.96875 47.46875 24.109375 47.828125 
Q 26.265625 48.1875 28.421875 48.1875 
Q 40.625 48.1875 47.75 41.5 
Q 54.890625 34.8125 54.890625 23.390625 
Q 54.890625 11.625 47.5625 5.09375 
Q 40.234375 -1.421875 26.90625 -1.421875 
Q 22.3125 -1.421875 17.546875 -0.640625 
Q 12.796875 0.140625 7.71875 1.703125 
L 7.71875 11.625 
Q 12.109375 9.234375 16.796875 8.0625 
Q 21.484375 6.890625 26.703125 6.890625 
Q 35.15625 6.890625 40.078125 11.328125 
Q 45.015625 15.765625 45.015625 23.390625 
Q 45.015625 31 40.078125 35.4375 
Q 35.15625 39.890625 26.703125 39.890625 
Q 22.75 39.890625 18.8125 39.015625 
Q 14.890625 38.140625 10.796875 36.28125 
z
" id="DejaVuSans-35"/>
      </defs>
      <g transform="translate(95.006095 418.718437)scale(0.1 -0.1)">
       <use xlink:href="#DejaVuSans-35"/>
       <use x="63.623047" xlink:href="#DejaVuSans-30"/>
       <use x="127.246094" xlink:href="#DejaVuSans-30"/>
      </g>
     </g>
    </g>
    <g id="xtick_3">
     <g id="line2d_5">
      <path clip-path="url(#p41521a1c4c)" d="M 159.820231 404.12 
L 159.820231 26.88 
" style="fill:none;stroke:#b0b0b0;stroke-linecap:square;stroke-width:0.8;"/>
     </g>
     <g id="line2d_6">
      <g>
       <use style="stroke:#000000;stroke-width:0.8;" x="159.820231" xlink:href="#m749c84a1df" y="404.12"/>
      </g>
     </g>
     <g id="text_3">
      <!-- 1000 -->
      <defs>
       <path d="M 12.40625 8.296875 
L 28.515625 8.296875 
L 28.515625 63.921875 
L 10.984375 60.40625 
L 10.984375 69.390625 
L 28.421875 72.90625 
L 38.28125 72.90625 
L 38.28125 8.296875 
L 54.390625 8.296875 
L 54.390625 0 
L 12.40625 0 
z
" id="DejaVuSans-31"/>
      </defs>
      <g transform="translate(147.095231 418.718437)scale(0.1 -0.1)">
       <use xlink:href="#DejaVuSans-31"/>
       <use x="63.623047" xlink:href="#DejaVuSans-30"/>
       <use x="127.246094" xlink:href="#DejaVuSans-30"/>
       <use x="190.869141" xlink:href="#DejaVuSans-30"/>
      </g>
     </g>
    </g>
    <g id="xtick_4">
     <g id="line2d_7">
      <path clip-path="url(#p41521a1c4c)" d="M 215.090617 404.12 
L 215.090617 26.88 
" style="fill:none;stroke:#b0b0b0;stroke-linecap:square;stroke-width:0.8;"/>
     </g>
     <g id="line2d_8">
      <g>
       <use style="stroke:#000000;stroke-width:0.8;" x="215.090617" xlink:href="#m749c84a1df" y="404.12"/>
      </g>
     </g>
     <g id="text_4">
      <!-- 1500 -->
      <g transform="translate(202.365617 418.718437)scale(0.1 -0.1)">
       <use xlink:href="#DejaVuSans-31"/>
       <use x="63.623047" xlink:href="#DejaVuSans-35"/>
       <use x="127.246094" xlink:href="#DejaVuSans-30"/>
       <use x="190.869141" xlink:href="#DejaVuSans-30"/>
      </g>
     </g>
    </g>
    <g id="xtick_5">
     <g id="line2d_9">
      <path clip-path="url(#p41521a1c4c)" d="M 270.361002 404.12 
L 270.361002 26.88 
" style="fill:none;stroke:#b0b0b0;stroke-linecap:square;stroke-width:0.8;"/>
     </g>
     <g id="line2d_10">
      <g>
       <use style="stroke:#000000;stroke-width:0.8;" x="270.361002" xlink:href="#m749c84a1df" y="404.12"/>
      </g>
     </g>
     <g id="text_5">
      <!-- 2000 -->
      <defs>
       <path d="M 19.1875 8.296875 
L 53.609375 8.296875 
L 53.609375 0 
L 7.328125 0 
L 7.328125 8.296875 
Q 12.9375 14.109375 22.625 23.890625 
Q 32.328125 33.6875 34.8125 36.53125 
Q 39.546875 41.84375 41.421875 45.53125 
Q 43.3125 49.21875 43.3125 52.78125 
Q 43.3125 58.59375 39.234375 62.25 
Q 35.15625 65.921875 28.609375 65.921875 
Q 23.96875 65.921875 18.8125 64.3125 
Q 13.671875 62.703125 7.8125 59.421875 
L 7.8125 69.390625 
Q 13.765625 71.78125 18.9375 73 
Q 24.125 74.21875 28.421875 74.21875 
Q 39.75 74.21875 46.484375 68.546875 
Q 53.21875 62.890625 53.21875 53.421875 
Q 53.21875 48.921875 51.53125 44.890625 
Q 49.859375 40.875 45.40625 35.40625 
Q 44.1875 33.984375 37.640625 27.21875 
Q 31.109375 20.453125 19.1875 8.296875 
" id="DejaVuSans-32"/>
      </defs>
      <g transform="translate(257.636002 418.718437)scale(0.1 -0.1)">
       <use xlink:href="#DejaVuSans-32"/>
       <use x="63.623047" xlink:href="#DejaVuSans-30"/>
       <use x="127.246094" xlink:href="#DejaVuSans-30"/>
       <use x="190.869141" xlink:href="#DejaVuSans-30"/>
      </g>
     </g>
    </g>
   </g>
   <g id="matplotlib.axis_2">
    <g id="ytick_1">
     <g id="line2d_11">
      <path clip-path="url(#p41521a1c4c)" d="M 49.39 358.623719 
L 281.415079 358.623719 
" style="fill:none;stroke:#b0b0b0;stroke-linecap:square;stroke-width:0.8;"/>
     </g>
     <g id="line2d_12">
      <defs>
       <path d="M 0 0 
L -3.5 0 
" id="m7496f9ae52" style="stroke:#000000;stroke-width:0.8;"/>
      </defs>
      <g>
       <use style="stroke:#000000;stroke-width:0.8;" x="49.39" xlink:href="#m7496f9ae52" y="358.623719"/>
      </g>
     </g>
     <g id="text_6">
      <!-- 5000 -->
      <g transform="translate(16.94 362.422937)scale(0.1 -0.1)">
       <use xlink:href="#DejaVuSans-35"/>
       <use x="63.623047" xlink:href="#DejaVuSans-30"/>
       <use x="127.246094" xlink:href="#DejaVuSans-30"/>
       <use x="190.869141" xlink:href="#DejaVuSans-30"/>
      </g>
     </g>
    </g>
    <g id="ytick_2">
     <g id="line2d_13">
      <path clip-path="url(#p41521a1c4c)" d="M 49.39 311.231759 
L 281.415079 311.231759 
" style="fill:none;stroke:#b0b0b0;stroke-linecap:square;stroke-width:0.8;"/>
     </g>
     <g id="line2d_14">
      <g>
       <use style="stroke:#000000;stroke-width:0.8;" x="49.39" xlink:href="#m7496f9ae52" y="311.231759"/>
      </g>
     </g>
     <g id="text_7">
      <!-- 10000 -->
      <g transform="translate(10.5775 315.030978)scale(0.1 -0.1)">
       <use xlink:href="#DejaVuSans-31"/>
       <use x="63.623047" xlink:href="#DejaVuSans-30"/>
       <use x="127.246094" xlink:href="#DejaVuSans-30"/>
       <use x="190.869141" xlink:href="#DejaVuSans-30"/>
       <use x="254.492188" xlink:href="#DejaVuSans-30"/>
      </g>
     </g>
    </g>
    <g id="ytick_3">
     <g id="line2d_15">
      <path clip-path="url(#p41521a1c4c)" d="M 49.39 263.839799 
L 281.415079 263.839799 
" style="fill:none;stroke:#b0b0b0;stroke-linecap:square;stroke-width:0.8;"/>
     </g>
     <g id="line2d_16">
      <g>
       <use style="stroke:#000000;stroke-width:0.8;" x="49.39" xlink:href="#m7496f9ae52" y="263.839799"/>
      </g>
     </g>
     <g id="text_8">
      <!-- 15000 -->
      <g transform="translate(10.5775 267.639018)scale(0.1 -0.1)">
       <use xlink:href="#DejaVuSans-31"/>
       <use x="63.623047" xlink:href="#DejaVuSans-35"/>
       <use x="127.246094" xlink:href="#DejaVuSans-30"/>
       <use x="190.869141" xlink:href="#DejaVuSans-30"/>
       <use x="254.492188" xlink:href="#DejaVuSans-30"/>
      </g>
     </g>
    </g>
    <g id="ytick_4">
     <g id="line2d_17">
      <path clip-path="url(#p41521a1c4c)" d="M 49.39 216.447839 
L 281.415079 216.447839 
" style="fill:none;stroke:#b0b0b0;stroke-linecap:square;stroke-width:0.8;"/>
     </g>
     <g id="line2d_18">
      <g>
       <use style="stroke:#000000;stroke-width:0.8;" x="49.39" xlink:href="#m7496f9ae52" y="216.447839"/>
      </g>
     </g>
     <g id="text_9">
      <!-- 20000 -->
      <g transform="translate(10.5775 220.247058)scale(0.1 -0.1)">
       <use xlink:href="#DejaVuSans-32"/>
       <use x="63.623047" xlink:href="#DejaVuSans-30"/>
       <use x="127.246094" xlink:href="#DejaVuSans-30"/>
       <use x="190.869141" xlink:href="#DejaVuSans-30"/>
       <use x="254.492188" xlink:href="#DejaVuSans-30"/>
      </g>
     </g>
    </g>
    <g id="ytick_5">
     <g id="line2d_19">
      <path clip-path="url(#p41521a1c4c)" d="M 49.39 169.055879 
L 281.415079 169.055879 
" style="fill:none;stroke:#b0b0b0;stroke-linecap:square;stroke-width:0.8;"/>
     </g>
     <g id="line2d_20">
      <g>
       <use style="stroke:#000000;stroke-width:0.8;" x="49.39" xlink:href="#m7496f9ae52" y="169.055879"/>
      </g>
     </g>
     <g id="text_10">
      <!-- 25000 -->
      <g transform="translate(10.5775 172.855098)scale(0.1 -0.1)">
       <use xlink:href="#DejaVuSans-32"/>
       <use x="63.623047" xlink:href="#DejaVuSans-35"/>
       <use x="127.246094" xlink:href="#DejaVuSans-30"/>
       <use x="190.869141" xlink:href="#DejaVuSans-30"/>
       <use x="254.492188" xlink:href="#DejaVuSans-30"/>
      </g>
     </g>
    </g>
    <g id="ytick_6">
     <g id="line2d_21">
      <path clip-path="url(#p41521a1c4c)" d="M 49.39 121.66392 
L 281.415079 121.66392 
" style="fill:none;stroke:#b0b0b0;stroke-linecap:square;stroke-width:0.8;"/>
     </g>
     <g id="line2d_22">
      <g>
       <use style="stroke:#000000;stroke-width:0.8;" x="49.39" xlink:href="#m7496f9ae52" y="121.66392"/>
      </g>
     </g>
     <g id="text_11">
      <!-- 30000 -->
      <defs>
       <path d="M 40.578125 39.3125 
Q 47.65625 37.796875 51.625 33 
Q 55.609375 28.21875 55.609375 21.1875 
Q 55.609375 10.40625 48.1875 4.484375 
Q 40.765625 -1.421875 27.09375 -1.421875 
Q 22.515625 -1.421875 17.65625 -0.515625 
Q 12.796875 0.390625 7.625 2.203125 
L 7.625 11.71875 
Q 11.71875 9.328125 16.59375 8.109375 
Q 21.484375 6.890625 26.8125 6.890625 
Q 36.078125 6.890625 40.9375 10.546875 
Q 45.796875 14.203125 45.796875 21.1875 
Q 45.796875 27.640625 41.28125 31.265625 
Q 36.765625 34.90625 28.71875 34.90625 
L 20.21875 34.90625 
L 20.21875 43.015625 
L 29.109375 43.015625 
Q 36.375 43.015625 40.234375 45.921875 
Q 44.09375 48.828125 44.09375 54.296875 
Q 44.09375 59.90625 40.109375 62.90625 
Q 36.140625 65.921875 28.71875 65.921875 
Q 24.65625 65.921875 20.015625 65.03125 
Q 15.375 64.15625 9.8125 62.3125 
L 9.8125 71.09375 
Q 15.4375 72.65625 20.34375 73.4375 
Q 25.25 74.21875 29.59375 74.21875 
Q 40.828125 74.21875 47.359375 69.109375 
Q 53.90625 64.015625 53.90625 55.328125 
Q 53.90625 49.265625 50.4375 45.09375 
Q 46.96875 40.921875 40.578125 39.3125 
" id="DejaVuSans-33"/>
      </defs>
      <g transform="translate(10.5775 125.463138)scale(0.1 -0.1)">
       <use xlink:href="#DejaVuSans-33"/>
       <use x="63.623047" xlink:href="#DejaVuSans-30"/>
       <use x="127.246094" xlink:href="#DejaVuSans-30"/>
       <use x="190.869141" xlink:href="#DejaVuSans-30"/>
       <use x="254.492188" xlink:href="#DejaVuSans-30"/>
      </g>
     </g>
    </g>
    <g id="ytick_7">
     <g id="line2d_23">
      <path clip-path="url(#p41521a1c4c)" d="M 49.39 74.27196 
L 281.415079 74.27196 
" style="fill:none;stroke:#b0b0b0;stroke-linecap:square;stroke-width:0.8;"/>
     </g>
     <g id="line2d_24">
      <g>
       <use style="stroke:#000000;stroke-width:0.8;" x="49.39" xlink:href="#m7496f9ae52" y="74.27196"/>
      </g>
     </g>
     <g id="text_12">
      <!-- 35000 -->
      <g transform="translate(10.5775 78.071179)scale(0.1 -0.1)">
       <use xlink:href="#DejaVuSans-33"/>
       <use x="63.623047" xlink:href="#DejaVuSans-35"/>
       <use x="127.246094" xlink:href="#DejaVuSans-30"/>
       <use x="190.869141" xlink:href="#DejaVuSans-30"/>
       <use x="254.492188" xlink:href="#DejaVuSans-30"/>
      </g>
     </g>
    </g>
    <g id="ytick_8">
     <g id="line2d_25">
      <path clip-path="url(#p41521a1c4c)" d="M 49.39 26.88 
L 281.415079 26.88 
" style="fill:none;stroke:#b0b0b0;stroke-linecap:square;stroke-width:0.8;"/>
     </g>
     <g id="line2d_26">
      <g>
       <use style="stroke:#000000;stroke-width:0.8;" x="49.39" xlink:href="#m7496f9ae52" y="26.88"/>
      </g>
     </g>
     <g id="text_13">
      <!-- 40000 -->
      <defs>
       <path d="M 37.796875 64.3125 
L 12.890625 25.390625 
L 37.796875 25.390625 
z
M 35.203125 72.90625 
L 47.609375 72.90625 
L 47.609375 25.390625 
L 58.015625 25.390625 
L 58.015625 17.1875 
L 47.609375 17.1875 
L 47.609375 0 
L 37.796875 0 
L 37.796875 17.1875 
L 4.890625 17.1875 
L 4.890625 26.703125 
z
" id="DejaVuSans-34"/>
      </defs>
      <g transform="translate(10.5775 30.679219)scale(0.1 -0.1)">
       <use xlink:href="#DejaVuSans-34"/>
       <use x="63.623047" xlink:href="#DejaVuSans-30"/>
       <use x="127.246094" xlink:href="#DejaVuSans-30"/>
       <use x="190.869141" xlink:href="#DejaVuSans-30"/>
       <use x="254.492188" xlink:href="#DejaVuSans-30"/>
      </g>
     </g>
    </g>
   </g>
   <g id="line2d_27">
    <path clip-path="url(#p41521a1c4c)" d="M 52.816764 400.546135 
L 56.354069 397.672198 
L 63.428678 395.221638 
L 77.577897 394.551936 
L 105.876334 395.096946 
L 162.473209 394.910314 
L 275.666959 396.595384 
" style="fill:none;stroke:#ff0000;stroke-linecap:square;stroke-width:1.5;"/>
    <defs>
     <path d="M -3 0 
L 3 0 
M 0 3 
L 0 -3 
" id="m163b4279f2" style="stroke:#ff0000;"/>
    </defs>
    <g clip-path="url(#p41521a1c4c)">
     <use style="fill:#ff0000;stroke:#ff0000;" x="52.816764" xlink:href="#m163b4279f2" y="400.546135"/>
     <use style="fill:#ff0000;stroke:#ff0000;" x="56.354069" xlink:href="#m163b4279f2" y="397.672198"/>
     <use style="fill:#ff0000;stroke:#ff0000;" x="63.428678" xlink:href="#m163b4279f2" y="395.221638"/>
     <use style="fill:#ff0000;stroke:#ff0000;" x="77.577897" xlink:href="#m163b4279f2" y="394.551936"/>
     <use style="fill:#ff0000;stroke:#ff0000;" x="105.876334" xlink:href="#m163b4279f2" y="395.096946"/>
     <use style="fill:#ff0000;stroke:#ff0000;" x="162.473209" xlink:href="#m163b4279f2" y="394.910314"/>
     <use style="fill:#ff0000;stroke:#ff0000;" x="275.666959" xlink:href="#m163b4279f2" y="396.595384"/>
    </g>
   </g>
   <g id="line2d_28">
    <path clip-path="url(#p41521a1c4c)" d="M 52.816764 399.512063 
L 56.354069 394.990699 
L 63.428678 387.876847 
L 77.577897 380.823599 
L 105.876334 380.569937 
L 162.473209 378.186102 
L 275.666959 375.349638 
" style="fill:none;stroke:#008000;stroke-linecap:square;stroke-width:1.5;"/>
    <defs>
     <path d="M 0 1.5 
C 0.397805 1.5 0.77937 1.341951 1.06066 1.06066 
C 1.341951 0.77937 1.5 0.397805 1.5 0 
C 1.5 -0.397805 1.341951 -0.77937 1.06066 -1.06066 
C 0.77937 -1.341951 0.397805 -1.5 0 -1.5 
C -0.397805 -1.5 -0.77937 -1.341951 -1.06066 -1.06066 
C -1.341951 -0.77937 -1.5 -0.397805 -1.5 0 
C -1.5 0.397805 -1.341951 0.77937 -1.06066 1.06066 
C -0.77937 1.341951 -0.397805 1.5 0 1.5 
z
" id="m4a00586b9f" style="stroke:#008000;"/>
    </defs>
    <g clip-path="url(#p41521a1c4c)">
     <use style="fill:#008000;stroke:#008000;" x="52.816764" xlink:href="#m4a00586b9f" y="399.512063"/>
     <use style="fill:#008000;stroke:#008000;" x="56.354069" xlink:href="#m4a00586b9f" y="394.990699"/>
     <use style="fill:#008000;stroke:#008000;" x="63.428678" xlink:href="#m4a00586b9f" y="387.876847"/>
     <use style="fill:#008000;stroke:#008000;" x="77.577897" xlink:href="#m4a00586b9f" y="380.823599"/>
     <use style="fill:#008000;stroke:#008000;" x="105.876334" xlink:href="#m4a00586b9f" y="380.569937"/>
     <use style="fill:#008000;stroke:#008000;" x="162.473209" xlink:href="#m4a00586b9f" y="378.186102"/>
     <use style="fill:#008000;stroke:#008000;" x="275.666959" xlink:href="#m4a00586b9f" y="375.349638"/>
    </g>
   </g>
   <g id="line2d_29">
    <path clip-path="url(#p41521a1c4c)" d="M 52.816764 398.480498 
L 56.354069 392.3026 
L 63.428678 382.734977 
L 77.577897 366.367312 
L 105.876334 343.725057 
L 162.473209 317.927945 
L 275.666959 320.015636 
" style="fill:none;stroke:#0000ff;stroke-linecap:square;stroke-width:1.5;"/>
    <defs>
     <path d="M 0 3 
C 0.795609 3 1.55874 2.683901 2.12132 2.12132 
C 2.683901 1.55874 3 0.795609 3 0 
C 3 -0.795609 2.683901 -1.55874 2.12132 -2.12132 
C 1.55874 -2.683901 0.795609 -3 0 -3 
C -0.795609 -3 -1.55874 -2.683901 -2.12132 -2.12132 
C -2.683901 -1.55874 -3 -0.795609 -3 0 
C -3 0.795609 -2.683901 1.55874 -2.12132 2.12132 
C -1.55874 2.683901 -0.795609 3 0 3 
z
" id="mf4d81474e0" style="stroke:#0000ff;"/>
    </defs>
    <g clip-path="url(#p41521a1c4c)">
     <use style="fill:#0000ff;stroke:#0000ff;" x="52.816764" xlink:href="#mf4d81474e0" y="398.480498"/>
     <use style="fill:#0000ff;stroke:#0000ff;" x="56.354069" xlink:href="#mf4d81474e0" y="392.3026"/>
     <use style="fill:#0000ff;stroke:#0000ff;" x="63.428678" xlink:href="#mf4d81474e0" y="382.734977"/>
     <use style="fill:#0000ff;stroke:#0000ff;" x="77.577897" xlink:href="#mf4d81474e0" y="366.367312"/>
     <use style="fill:#0000ff;stroke:#0000ff;" x="105.876334" xlink:href="#mf4d81474e0" y="343.725057"/>
     <use style="fill:#0000ff;stroke:#0000ff;" x="162.473209" xlink:href="#mf4d81474e0" y="317.927945"/>
     <use style="fill:#0000ff;stroke:#0000ff;" x="275.666959" xlink:href="#mf4d81474e0" y="320.015636"/>
    </g>
   </g>
   <g id="line2d_30">
    <path clip-path="url(#p41521a1c4c)" d="M 52.816764 398.651918 
L 56.354069 393.236687 
L 63.428678 383.137627 
L 77.577897 366.259016 
L 105.876334 341.599946 
L 162.473209 307.238516 
L 275.666959 311.842515 
" style="fill:none;stroke:#00bfbf;stroke-linecap:square;stroke-width:1.5;"/>
    <defs>
     <path d="M 0 -3 
L -0.673542 -0.927051 
L -2.85317 -0.927051 
L -1.089814 0.354102 
L -1.763356 2.427051 
L -0 1.145898 
L 1.763356 2.427051 
L 1.089814 0.354102 
L 2.85317 -0.927051 
L 0.673542 -0.927051 
z
" id="m4e8ac8849e" style="stroke:#00bfbf;stroke-linejoin:bevel;"/>
    </defs>
    <g clip-path="url(#p41521a1c4c)">
     <use style="fill:#00bfbf;stroke:#00bfbf;stroke-linejoin:bevel;" x="52.816764" xlink:href="#m4e8ac8849e" y="398.651918"/>
     <use style="fill:#00bfbf;stroke:#00bfbf;stroke-linejoin:bevel;" x="56.354069" xlink:href="#m4e8ac8849e" y="393.236687"/>
     <use style="fill:#00bfbf;stroke:#00bfbf;stroke-linejoin:bevel;" x="63.428678" xlink:href="#m4e8ac8849e" y="383.137627"/>
     <use style="fill:#00bfbf;stroke:#00bfbf;stroke-linejoin:bevel;" x="77.577897" xlink:href="#m4e8ac8849e" y="366.259016"/>
     <use style="fill:#00bfbf;stroke:#00bfbf;stroke-linejoin:bevel;" x="105.876334" xlink:href="#m4e8ac8849e" y="341.599946"/>
     <use style="fill:#00bfbf;stroke:#00bfbf;stroke-linejoin:bevel;" x="162.473209" xlink:href="#m4e8ac8849e" y="307.238516"/>
     <use style="fill:#00bfbf;stroke:#00bfbf;stroke-linejoin:bevel;" x="275.666959" xlink:href="#m4e8ac8849e" y="311.842515"/>
    </g>
   </g>
   <g id="line2d_31">
    <path clip-path="url(#p41521a1c4c)" d="M 52.816764 398.51839 
L 56.354069 391.445931 
L 63.428678 378.845132 
L 77.577897 355.912786 
L 105.876334 316.09794 
L 162.473209 252.035367 
L 275.666959 144.475862 
" style="fill:none;stroke:#bfbf00;stroke-linecap:square;stroke-width:1.5;"/>
    <defs>
     <path d="M 0 -3 
L -3 3 
L 3 3 
z
" id="m07b3c7f241" style="stroke:#bfbf00;stroke-linejoin:miter;"/>
    </defs>
    <g clip-path="url(#p41521a1c4c)">
     <use style="fill:#bfbf00;stroke:#bfbf00;stroke-linejoin:miter;" x="52.816764" xlink:href="#m07b3c7f241" y="398.51839"/>
     <use style="fill:#bfbf00;stroke:#bfbf00;stroke-linejoin:miter;" x="56.354069" xlink:href="#m07b3c7f241" y="391.445931"/>
     <use style="fill:#bfbf00;stroke:#bfbf00;stroke-linejoin:miter;" x="63.428678" xlink:href="#m07b3c7f241" y="378.845132"/>
     <use style="fill:#bfbf00;stroke:#bfbf00;stroke-linejoin:miter;" x="77.577897" xlink:href="#m07b3c7f241" y="355.912786"/>
     <use style="fill:#bfbf00;stroke:#bfbf00;stroke-linejoin:miter;" x="105.876334" xlink:href="#m07b3c7f241" y="316.09794"/>
     <use style="fill:#bfbf00;stroke:#bfbf00;stroke-linejoin:miter;" x="162.473209" xlink:href="#m07b3c7f241" y="252.035367"/>
     <use style="fill:#bfbf00;stroke:#bfbf00;stroke-linejoin:miter;" x="275.666959" xlink:href="#m07b3c7f241" y="144.475862"/>
    </g>
   </g>
   <g id="line2d_32">
    <path clip-path="url(#p41521a1c4c)" d="M 56.354069 392.032276 
L 77.577897 351.067082 
L 105.876334 305.281673 
L 162.473209 211.156149 
L 275.666959 49.444831 
" style="fill:none;stroke:#bf00bf;stroke-linecap:square;stroke-width:1.5;"/>
    <defs>
     <path d="M -3 3 
L 3 3 
L 3 -3 
L -3 -3 
z
" id="mc3e632fd66" style="stroke:#bf00bf;stroke-linejoin:miter;"/>
    </defs>
    <g clip-path="url(#p41521a1c4c)">
     <use style="fill:#bf00bf;stroke:#bf00bf;stroke-linejoin:miter;" x="56.354069" xlink:href="#mc3e632fd66" y="392.032276"/>
     <use style="fill:#bf00bf;stroke:#bf00bf;stroke-linejoin:miter;" x="77.577897" xlink:href="#mc3e632fd66" y="351.067082"/>
     <use style="fill:#bf00bf;stroke:#bf00bf;stroke-linejoin:miter;" x="105.876334" xlink:href="#mc3e632fd66" y="305.281673"/>
     <use style="fill:#bf00bf;stroke:#bf00bf;stroke-linejoin:miter;" x="162.473209" xlink:href="#mc3e632fd66" y="211.156149"/>
     <use style="fill:#bf00bf;stroke:#bf00bf;stroke-linejoin:miter;" x="275.666959" xlink:href="#mc3e632fd66" y="49.444831"/>
    </g>
   </g>
   <g id="patch_3">
    <path d="M 49.39 404.12 
L 49.39 26.88 
" style="fill:none;stroke:#000000;stroke-linecap:square;stroke-linejoin:miter;stroke-width:0.8;"/>
   </g>
   <g id="patch_4">
    <path d="M 281.415079 404.12 
L 281.415079 26.88 
" style="fill:none;stroke:#000000;stroke-linecap:square;stroke-linejoin:miter;stroke-width:0.8;"/>
   </g>
   <g id="patch_5">
    <path d="M 49.39 404.12 
L 281.415079 404.12 
" style="fill:none;stroke:#000000;stroke-linecap:square;stroke-linejoin:miter;stroke-width:0.8;"/>
   </g>
   <g id="patch_6">
    <path d="M 49.39 26.88 
L 281.415079 26.88 
" style="fill:none;stroke:#000000;stroke-linecap:square;stroke-linejoin:miter;stroke-width:0.8;"/>
   </g>
   <g id="text_14">
    <!-- Parcelport libfabric -->
    <defs>
     <path d="M 19.671875 64.796875 
L 19.671875 37.40625 
L 32.078125 37.40625 
Q 38.96875 37.40625 42.71875 40.96875 
Q 46.484375 44.53125 46.484375 51.125 
Q 46.484375 57.671875 42.71875 61.234375 
Q 38.96875 64.796875 32.078125 64.796875 
z
M 9.8125 72.90625 
L 32.078125 72.90625 
Q 44.34375 72.90625 50.609375 67.359375 
Q 56.890625 61.8125 56.890625 51.125 
Q 56.890625 40.328125 50.609375 34.8125 
Q 44.34375 29.296875 32.078125 29.296875 
L 19.671875 29.296875 
L 19.671875 0 
L 9.8125 0 
z
" id="DejaVuSans-50"/>
     <path d="M 34.28125 27.484375 
Q 23.390625 27.484375 19.1875 25 
Q 14.984375 22.515625 14.984375 16.5 
Q 14.984375 11.71875 18.140625 8.90625 
Q 21.296875 6.109375 26.703125 6.109375 
Q 34.1875 6.109375 38.703125 11.40625 
Q 43.21875 16.703125 43.21875 25.484375 
L 43.21875 27.484375 
z
M 52.203125 31.203125 
L 52.203125 0 
L 43.21875 0 
L 43.21875 8.296875 
Q 40.140625 3.328125 35.546875 0.953125 
Q 30.953125 -1.421875 24.3125 -1.421875 
Q 15.921875 -1.421875 10.953125 3.296875 
Q 6 8.015625 6 15.921875 
Q 6 25.140625 12.171875 29.828125 
Q 18.359375 34.515625 30.609375 34.515625 
L 43.21875 34.515625 
L 43.21875 35.40625 
Q 43.21875 41.609375 39.140625 45 
Q 35.0625 48.390625 27.6875 48.390625 
Q 23 48.390625 18.546875 47.265625 
Q 14.109375 46.140625 10.015625 43.890625 
L 10.015625 52.203125 
Q 14.9375 54.109375 19.578125 55.046875 
Q 24.21875 56 28.609375 56 
Q 40.484375 56 46.34375 49.84375 
Q 52.203125 43.703125 52.203125 31.203125 
" id="DejaVuSans-61"/>
     <path d="M 41.109375 46.296875 
Q 39.59375 47.171875 37.8125 47.578125 
Q 36.03125 48 33.890625 48 
Q 26.265625 48 22.1875 43.046875 
Q 18.109375 38.09375 18.109375 28.8125 
L 18.109375 0 
L 9.078125 0 
L 9.078125 54.6875 
L 18.109375 54.6875 
L 18.109375 46.1875 
Q 20.953125 51.171875 25.484375 53.578125 
Q 30.03125 56 36.53125 56 
Q 37.453125 56 38.578125 55.875 
Q 39.703125 55.765625 41.0625 55.515625 
z
" id="DejaVuSans-72"/>
     <path d="M 48.78125 52.59375 
L 48.78125 44.1875 
Q 44.96875 46.296875 41.140625 47.34375 
Q 37.3125 48.390625 33.40625 48.390625 
Q 24.65625 48.390625 19.8125 42.84375 
Q 14.984375 37.3125 14.984375 27.296875 
Q 14.984375 17.28125 19.8125 11.734375 
Q 24.65625 6.203125 33.40625 6.203125 
Q 37.3125 6.203125 41.140625 7.25 
Q 44.96875 8.296875 48.78125 10.40625 
L 48.78125 2.09375 
Q 45.015625 0.34375 40.984375 -0.53125 
Q 36.96875 -1.421875 32.421875 -1.421875 
Q 20.0625 -1.421875 12.78125 6.34375 
Q 5.515625 14.109375 5.515625 27.296875 
Q 5.515625 40.671875 12.859375 48.328125 
Q 20.21875 56 33.015625 56 
Q 37.15625 56 41.109375 55.140625 
Q 45.0625 54.296875 48.78125 52.59375 
" id="DejaVuSans-63"/>
     <path d="M 56.203125 29.59375 
L 56.203125 25.203125 
L 14.890625 25.203125 
Q 15.484375 15.921875 20.484375 11.0625 
Q 25.484375 6.203125 34.421875 6.203125 
Q 39.59375 6.203125 44.453125 7.46875 
Q 49.3125 8.734375 54.109375 11.28125 
L 54.109375 2.78125 
Q 49.265625 0.734375 44.1875 -0.34375 
Q 39.109375 -1.421875 33.890625 -1.421875 
Q 20.796875 -1.421875 13.15625 6.1875 
Q 5.515625 13.8125 5.515625 26.8125 
Q 5.515625 40.234375 12.765625 48.109375 
Q 20.015625 56 32.328125 56 
Q 43.359375 56 49.78125 48.890625 
Q 56.203125 41.796875 56.203125 29.59375 
M 47.21875 32.234375 
Q 47.125 39.59375 43.09375 43.984375 
Q 39.0625 48.390625 32.421875 48.390625 
Q 24.90625 48.390625 20.390625 44.140625 
Q 15.875 39.890625 15.1875 32.171875 
z
" id="DejaVuSans-65"/>
     <path d="M 9.421875 75.984375 
L 18.40625 75.984375 
L 18.40625 0 
L 9.421875 0 
z
" id="DejaVuSans-6c"/>
     <path d="M 18.109375 8.203125 
L 18.109375 -20.796875 
L 9.078125 -20.796875 
L 9.078125 54.6875 
L 18.109375 54.6875 
L 18.109375 46.390625 
Q 20.953125 51.265625 25.265625 53.625 
Q 29.59375 56 35.59375 56 
Q 45.5625 56 51.78125 48.09375 
Q 58.015625 40.1875 58.015625 27.296875 
Q 58.015625 14.40625 51.78125 6.484375 
Q 45.5625 -1.421875 35.59375 -1.421875 
Q 29.59375 -1.421875 25.265625 0.953125 
Q 20.953125 3.328125 18.109375 8.203125 
M 48.6875 27.296875 
Q 48.6875 37.203125 44.609375 42.84375 
Q 40.53125 48.484375 33.40625 48.484375 
Q 26.265625 48.484375 22.1875 42.84375 
Q 18.109375 37.203125 18.109375 27.296875 
Q 18.109375 17.390625 22.1875 11.75 
Q 26.265625 6.109375 33.40625 6.109375 
Q 40.53125 6.109375 44.609375 11.75 
Q 48.6875 17.390625 48.6875 27.296875 
" id="DejaVuSans-70"/>
     <path d="M 30.609375 48.390625 
Q 23.390625 48.390625 19.1875 42.75 
Q 14.984375 37.109375 14.984375 27.296875 
Q 14.984375 17.484375 19.15625 11.84375 
Q 23.34375 6.203125 30.609375 6.203125 
Q 37.796875 6.203125 41.984375 11.859375 
Q 46.1875 17.53125 46.1875 27.296875 
Q 46.1875 37.015625 41.984375 42.703125 
Q 37.796875 48.390625 30.609375 48.390625 
M 30.609375 56 
Q 42.328125 56 49.015625 48.375 
Q 55.71875 40.765625 55.71875 27.296875 
Q 55.71875 13.875 49.015625 6.21875 
Q 42.328125 -1.421875 30.609375 -1.421875 
Q 18.84375 -1.421875 12.171875 6.21875 
Q 5.515625 13.875 5.515625 27.296875 
Q 5.515625 40.765625 12.171875 48.375 
Q 18.84375 56 30.609375 56 
" id="DejaVuSans-6f"/>
     <path d="M 18.3125 70.21875 
L 18.3125 54.6875 
L 36.8125 54.6875 
L 36.8125 47.703125 
L 18.3125 47.703125 
L 18.3125 18.015625 
Q 18.3125 11.328125 20.140625 9.421875 
Q 21.96875 7.515625 27.59375 7.515625 
L 36.8125 7.515625 
L 36.8125 0 
L 27.59375 0 
Q 17.1875 0 13.234375 3.875 
Q 9.28125 7.765625 9.28125 18.015625 
L 9.28125 47.703125 
L 2.6875 47.703125 
L 2.6875 54.6875 
L 9.28125 54.6875 
L 9.28125 70.21875 
z
" id="DejaVuSans-74"/>
     <path id="DejaVuSans-20"/>
     <path d="M 9.421875 54.6875 
L 18.40625 54.6875 
L 18.40625 0 
L 9.421875 0 
z
M 9.421875 75.984375 
L 18.40625 75.984375 
L 18.40625 64.59375 
L 9.421875 64.59375 
z
" id="DejaVuSans-69"/>
     <path d="M 48.6875 27.296875 
Q 48.6875 37.203125 44.609375 42.84375 
Q 40.53125 48.484375 33.40625 48.484375 
Q 26.265625 48.484375 22.1875 42.84375 
Q 18.109375 37.203125 18.109375 27.296875 
Q 18.109375 17.390625 22.1875 11.75 
Q 26.265625 6.109375 33.40625 6.109375 
Q 40.53125 6.109375 44.609375 11.75 
Q 48.6875 17.390625 48.6875 27.296875 
M 18.109375 46.390625 
Q 20.953125 51.265625 25.265625 53.625 
Q 29.59375 56 35.59375 56 
Q 45.5625 56 51.78125 48.09375 
Q 58.015625 40.1875 58.015625 27.296875 
Q 58.015625 14.40625 51.78125 6.484375 
Q 45.5625 -1.421875 35.59375 -1.421875 
Q 29.59375 -1.421875 25.265625 0.953125 
Q 20.953125 3.328125 18.109375 8.203125 
L 18.109375 0 
L 9.078125 0 
L 9.078125 75.984375 
L 18.109375 75.984375 
z
" id="DejaVuSans-62"/>
     <path d="M 37.109375 75.984375 
L 37.109375 68.5 
L 28.515625 68.5 
Q 23.6875 68.5 21.796875 66.546875 
Q 19.921875 64.59375 19.921875 59.515625 
L 19.921875 54.6875 
L 34.71875 54.6875 
L 34.71875 47.703125 
L 19.921875 47.703125 
L 19.921875 0 
L 10.890625 0 
L 10.890625 47.703125 
L 2.296875 47.703125 
L 2.296875 54.6875 
L 10.890625 54.6875 
L 10.890625 58.5 
Q 10.890625 67.625 15.140625 71.796875 
Q 19.390625 75.984375 28.609375 75.984375 
z
" id="DejaVuSans-66"/>
    </defs>
    <g transform="translate(118.075196 20.88)scale(0.1 -0.1)">
     <use xlink:href="#DejaVuSans-50"/>
     <use x="60.240234" xlink:href="#DejaVuSans-61"/>
     <use x="121.519531" xlink:href="#DejaVuSans-72"/>
     <use x="162.601562" xlink:href="#DejaVuSans-63"/>
     <use x="217.582031" xlink:href="#DejaVuSans-65"/>
     <use x="279.105469" xlink:href="#DejaVuSans-6c"/>
     <use x="306.888672" xlink:href="#DejaVuSans-70"/>
     <use x="370.365234" xlink:href="#DejaVuSans-6f"/>
     <use x="431.546875" xlink:href="#DejaVuSans-72"/>
     <use x="472.660156" xlink:href="#DejaVuSans-74"/>
     <use x="511.869141" xlink:href="#DejaVuSans-20"/>
     <use x="543.65625" xlink:href="#DejaVuSans-6c"/>
     <use x="571.439453" xlink:href="#DejaVuSans-69"/>
     <use x="599.222656" xlink:href="#DejaVuSans-62"/>
     <use x="662.699219" xlink:href="#DejaVuSans-66"/>
     <use x="697.904297" xlink:href="#DejaVuSans-61"/>
     <use x="759.183594" xlink:href="#DejaVuSans-62"/>
     <use x="822.660156" xlink:href="#DejaVuSans-72"/>
     <use x="863.773438" xlink:href="#DejaVuSans-69"/>
     <use x="891.556641" xlink:href="#DejaVuSans-63"/>
    </g>
   </g>
  </g>
  <g id="axes_2">
   <g id="patch_7">
    <path d="M 334.02246 404.12 
L 566.04754 404.12 
L 566.04754 26.88 
L 334.02246 26.88 
z
" style="fill:#ffffff;"/>
   </g>
   <g id="matplotlib.axis_3">
    <g id="xtick_6">
     <g id="line2d_33">
      <path clip-path="url(#p4ec5a8e13a)" d="M 333.91192 404.12 
L 333.91192 26.88 
" style="fill:none;stroke:#b0b0b0;stroke-linecap:square;stroke-width:0.8;"/>
     </g>
     <g id="line2d_34">
      <g>
       <use style="stroke:#000000;stroke-width:0.8;" x="333.91192" xlink:href="#m749c84a1df" y="404.12"/>
      </g>
     </g>
     <g id="text_15">
      <!-- 0 -->
      <g transform="translate(330.73067 418.718437)scale(0.1 -0.1)">
       <use xlink:href="#DejaVuSans-30"/>
      </g>
     </g>
    </g>
    <g id="xtick_7">
     <g id="line2d_35">
      <path clip-path="url(#p4ec5a8e13a)" d="M 389.182305 404.12 
L 389.182305 26.88 
" style="fill:none;stroke:#b0b0b0;stroke-linecap:square;stroke-width:0.8;"/>
     </g>
     <g id="line2d_36">
      <g>
       <use style="stroke:#000000;stroke-width:0.8;" x="389.182305" xlink:href="#m749c84a1df" y="404.12"/>
      </g>
     </g>
     <g id="text_16">
      <!-- 500 -->
      <g transform="translate(379.638555 418.718437)scale(0.1 -0.1)">
       <use xlink:href="#DejaVuSans-35"/>
       <use x="63.623047" xlink:href="#DejaVuSans-30"/>
       <use x="127.246094" xlink:href="#DejaVuSans-30"/>
      </g>
     </g>
    </g>
    <g id="xtick_8">
     <g id="line2d_37">
      <path clip-path="url(#p4ec5a8e13a)" d="M 444.452691 404.12 
L 444.452691 26.88 
" style="fill:none;stroke:#b0b0b0;stroke-linecap:square;stroke-width:0.8;"/>
     </g>
     <g id="line2d_38">
      <g>
       <use style="stroke:#000000;stroke-width:0.8;" x="444.452691" xlink:href="#m749c84a1df" y="404.12"/>
      </g>
     </g>
     <g id="text_17">
      <!-- 1000 -->
      <g transform="translate(431.727691 418.718437)scale(0.1 -0.1)">
       <use xlink:href="#DejaVuSans-31"/>
       <use x="63.623047" xlink:href="#DejaVuSans-30"/>
       <use x="127.246094" xlink:href="#DejaVuSans-30"/>
       <use x="190.869141" xlink:href="#DejaVuSans-30"/>
      </g>
     </g>
    </g>
    <g id="xtick_9">
     <g id="line2d_39">
      <path clip-path="url(#p4ec5a8e13a)" d="M 499.723077 404.12 
L 499.723077 26.88 
" style="fill:none;stroke:#b0b0b0;stroke-linecap:square;stroke-width:0.8;"/>
     </g>
     <g id="line2d_40">
      <g>
       <use style="stroke:#000000;stroke-width:0.8;" x="499.723077" xlink:href="#m749c84a1df" y="404.12"/>
      </g>
     </g>
     <g id="text_18">
      <!-- 1500 -->
      <g transform="translate(486.998077 418.718437)scale(0.1 -0.1)">
       <use xlink:href="#DejaVuSans-31"/>
       <use x="63.623047" xlink:href="#DejaVuSans-35"/>
       <use x="127.246094" xlink:href="#DejaVuSans-30"/>
       <use x="190.869141" xlink:href="#DejaVuSans-30"/>
      </g>
     </g>
    </g>
    <g id="xtick_10">
     <g id="line2d_41">
      <path clip-path="url(#p4ec5a8e13a)" d="M 554.993463 404.12 
L 554.993463 26.88 
" style="fill:none;stroke:#b0b0b0;stroke-linecap:square;stroke-width:0.8;"/>
     </g>
     <g id="line2d_42">
      <g>
       <use style="stroke:#000000;stroke-width:0.8;" x="554.993463" xlink:href="#m749c84a1df" y="404.12"/>
      </g>
     </g>
     <g id="text_19">
      <!-- 2000 -->
      <g transform="translate(542.268463 418.718437)scale(0.1 -0.1)">
       <use xlink:href="#DejaVuSans-32"/>
       <use x="63.623047" xlink:href="#DejaVuSans-30"/>
       <use x="127.246094" xlink:href="#DejaVuSans-30"/>
       <use x="190.869141" xlink:href="#DejaVuSans-30"/>
      </g>
     </g>
    </g>
   </g>
   <g id="matplotlib.axis_4">
    <g id="ytick_9">
     <g id="line2d_43">
      <path clip-path="url(#p4ec5a8e13a)" d="M 334.02246 358.623719 
L 566.04754 358.623719 
" style="fill:none;stroke:#b0b0b0;stroke-linecap:square;stroke-width:0.8;"/>
     </g>
     <g id="line2d_44">
      <g>
       <use style="stroke:#000000;stroke-width:0.8;" x="334.02246" xlink:href="#m7496f9ae52" y="358.623719"/>
      </g>
     </g>
     <g id="text_20">
      <!-- 5000 -->
      <g transform="translate(301.57246 362.422937)scale(0.1 -0.1)">
       <use xlink:href="#DejaVuSans-35"/>
       <use x="63.623047" xlink:href="#DejaVuSans-30"/>
       <use x="127.246094" xlink:href="#DejaVuSans-30"/>
       <use x="190.869141" xlink:href="#DejaVuSans-30"/>
      </g>
     </g>
    </g>
    <g id="ytick_10">
     <g id="line2d_45">
      <path clip-path="url(#p4ec5a8e13a)" d="M 334.02246 311.231759 
L 566.04754 311.231759 
" style="fill:none;stroke:#b0b0b0;stroke-linecap:square;stroke-width:0.8;"/>
     </g>
     <g id="line2d_46">
      <g>
       <use style="stroke:#000000;stroke-width:0.8;" x="334.02246" xlink:href="#m7496f9ae52" y="311.231759"/>
      </g>
     </g>
     <g id="text_21">
      <!-- 10000 -->
      <g transform="translate(295.20996 315.030978)scale(0.1 -0.1)">
       <use xlink:href="#DejaVuSans-31"/>
       <use x="63.623047" xlink:href="#DejaVuSans-30"/>
       <use x="127.246094" xlink:href="#DejaVuSans-30"/>
       <use x="190.869141" xlink:href="#DejaVuSans-30"/>
       <use x="254.492188" xlink:href="#DejaVuSans-30"/>
      </g>
     </g>
    </g>
    <g id="ytick_11">
     <g id="line2d_47">
      <path clip-path="url(#p4ec5a8e13a)" d="M 334.02246 263.839799 
L 566.04754 263.839799 
" style="fill:none;stroke:#b0b0b0;stroke-linecap:square;stroke-width:0.8;"/>
     </g>
     <g id="line2d_48">
      <g>
       <use style="stroke:#000000;stroke-width:0.8;" x="334.02246" xlink:href="#m7496f9ae52" y="263.839799"/>
      </g>
     </g>
     <g id="text_22">
      <!-- 15000 -->
      <g transform="translate(295.20996 267.639018)scale(0.1 -0.1)">
       <use xlink:href="#DejaVuSans-31"/>
       <use x="63.623047" xlink:href="#DejaVuSans-35"/>
       <use x="127.246094" xlink:href="#DejaVuSans-30"/>
       <use x="190.869141" xlink:href="#DejaVuSans-30"/>
       <use x="254.492188" xlink:href="#DejaVuSans-30"/>
      </g>
     </g>
    </g>
    <g id="ytick_12">
     <g id="line2d_49">
      <path clip-path="url(#p4ec5a8e13a)" d="M 334.02246 216.447839 
L 566.04754 216.447839 
" style="fill:none;stroke:#b0b0b0;stroke-linecap:square;stroke-width:0.8;"/>
     </g>
     <g id="line2d_50">
      <g>
       <use style="stroke:#000000;stroke-width:0.8;" x="334.02246" xlink:href="#m7496f9ae52" y="216.447839"/>
      </g>
     </g>
     <g id="text_23">
      <!-- 20000 -->
      <g transform="translate(295.20996 220.247058)scale(0.1 -0.1)">
       <use xlink:href="#DejaVuSans-32"/>
       <use x="63.623047" xlink:href="#DejaVuSans-30"/>
       <use x="127.246094" xlink:href="#DejaVuSans-30"/>
       <use x="190.869141" xlink:href="#DejaVuSans-30"/>
       <use x="254.492188" xlink:href="#DejaVuSans-30"/>
      </g>
     </g>
    </g>
    <g id="ytick_13">
     <g id="line2d_51">
      <path clip-path="url(#p4ec5a8e13a)" d="M 334.02246 169.055879 
L 566.04754 169.055879 
" style="fill:none;stroke:#b0b0b0;stroke-linecap:square;stroke-width:0.8;"/>
     </g>
     <g id="line2d_52">
      <g>
       <use style="stroke:#000000;stroke-width:0.8;" x="334.02246" xlink:href="#m7496f9ae52" y="169.055879"/>
      </g>
     </g>
     <g id="text_24">
      <!-- 25000 -->
      <g transform="translate(295.20996 172.855098)scale(0.1 -0.1)">
       <use xlink:href="#DejaVuSans-32"/>
       <use x="63.623047" xlink:href="#DejaVuSans-35"/>
       <use x="127.246094" xlink:href="#DejaVuSans-30"/>
       <use x="190.869141" xlink:href="#DejaVuSans-30"/>
       <use x="254.492188" xlink:href="#DejaVuSans-30"/>
      </g>
     </g>
    </g>
    <g id="ytick_14">
     <g id="line2d_53">
      <path clip-path="url(#p4ec5a8e13a)" d="M 334.02246 121.66392 
L 566.04754 121.66392 
" style="fill:none;stroke:#b0b0b0;stroke-linecap:square;stroke-width:0.8;"/>
     </g>
     <g id="line2d_54">
      <g>
       <use style="stroke:#000000;stroke-width:0.8;" x="334.02246" xlink:href="#m7496f9ae52" y="121.66392"/>
      </g>
     </g>
     <g id="text_25">
      <!-- 30000 -->
      <g transform="translate(295.20996 125.463138)scale(0.1 -0.1)">
       <use xlink:href="#DejaVuSans-33"/>
       <use x="63.623047" xlink:href="#DejaVuSans-30"/>
       <use x="127.246094" xlink:href="#DejaVuSans-30"/>
       <use x="190.869141" xlink:href="#DejaVuSans-30"/>
       <use x="254.492188" xlink:href="#DejaVuSans-30"/>
      </g>
     </g>
    </g>
    <g id="ytick_15">
     <g id="line2d_55">
      <path clip-path="url(#p4ec5a8e13a)" d="M 334.02246 74.27196 
L 566.04754 74.27196 
" style="fill:none;stroke:#b0b0b0;stroke-linecap:square;stroke-width:0.8;"/>
     </g>
     <g id="line2d_56">
      <g>
       <use style="stroke:#000000;stroke-width:0.8;" x="334.02246" xlink:href="#m7496f9ae52" y="74.27196"/>
      </g>
     </g>
     <g id="text_26">
      <!-- 35000 -->
      <g transform="translate(295.20996 78.071179)scale(0.1 -0.1)">
       <use xlink:href="#DejaVuSans-33"/>
       <use x="63.623047" xlink:href="#DejaVuSans-35"/>
       <use x="127.246094" xlink:href="#DejaVuSans-30"/>
       <use x="190.869141" xlink:href="#DejaVuSans-30"/>
       <use x="254.492188" xlink:href="#DejaVuSans-30"/>
      </g>
     </g>
    </g>
    <g id="ytick_16">
     <g id="line2d_57">
      <path clip-path="url(#p4ec5a8e13a)" d="M 334.02246 26.88 
L 566.04754 26.88 
" style="fill:none;stroke:#b0b0b0;stroke-linecap:square;stroke-width:0.8;"/>
     </g>
     <g id="line2d_58">
      <g>
       <use style="stroke:#000000;stroke-width:0.8;" x="334.02246" xlink:href="#m7496f9ae52" y="26.88"/>
      </g>
     </g>
     <g id="text_27">
      <!-- 40000 -->
      <g transform="translate(295.20996 30.679219)scale(0.1 -0.1)">
       <use xlink:href="#DejaVuSans-34"/>
       <use x="63.623047" xlink:href="#DejaVuSans-30"/>
       <use x="127.246094" xlink:href="#DejaVuSans-30"/>
       <use x="190.869141" xlink:href="#DejaVuSans-30"/>
       <use x="254.492188" xlink:href="#DejaVuSans-30"/>
      </g>
     </g>
    </g>
   </g>
   <g id="line2d_59">
    <path clip-path="url(#p4ec5a8e13a)" d="M 337.449224 402.126003 
L 340.986529 400.586369 
L 348.061138 398.561971 
L 362.210357 397.383659 
L 390.508795 396.37278 
L 447.10567 397.085683 
L 560.29942 397.192292 
" style="fill:none;stroke:#ff0000;stroke-linecap:square;stroke-width:1.5;"/>
    <g clip-path="url(#p4ec5a8e13a)">
     <use style="fill:#ff0000;stroke:#ff0000;" x="337.449224" xlink:href="#m163b4279f2" y="402.126003"/>
     <use style="fill:#ff0000;stroke:#ff0000;" x="340.986529" xlink:href="#m163b4279f2" y="400.586369"/>
     <use style="fill:#ff0000;stroke:#ff0000;" x="348.061138" xlink:href="#m163b4279f2" y="398.561971"/>
     <use style="fill:#ff0000;stroke:#ff0000;" x="362.210357" xlink:href="#m163b4279f2" y="397.383659"/>
     <use style="fill:#ff0000;stroke:#ff0000;" x="390.508795" xlink:href="#m163b4279f2" y="396.37278"/>
     <use style="fill:#ff0000;stroke:#ff0000;" x="447.10567" xlink:href="#m163b4279f2" y="397.085683"/>
     <use style="fill:#ff0000;stroke:#ff0000;" x="560.29942" xlink:href="#m163b4279f2" y="397.192292"/>
    </g>
   </g>
   <g id="line2d_60">
    <path clip-path="url(#p4ec5a8e13a)" d="M 337.449224 400.654398 
L 340.986529 397.689674 
L 348.061138 394.180113 
L 362.210357 390.375925 
L 390.508795 386.749302 
L 447.10567 381.962617 
L 560.29942 382.15762 
" style="fill:none;stroke:#008000;stroke-linecap:square;stroke-width:1.5;"/>
    <g clip-path="url(#p4ec5a8e13a)">
     <use style="fill:#008000;stroke:#008000;" x="337.449224" xlink:href="#m4a00586b9f" y="400.654398"/>
     <use style="fill:#008000;stroke:#008000;" x="340.986529" xlink:href="#m4a00586b9f" y="397.689674"/>
     <use style="fill:#008000;stroke:#008000;" x="348.061138" xlink:href="#m4a00586b9f" y="394.180113"/>
     <use style="fill:#008000;stroke:#008000;" x="362.210357" xlink:href="#m4a00586b9f" y="390.375925"/>
     <use style="fill:#008000;stroke:#008000;" x="390.508795" xlink:href="#m4a00586b9f" y="386.749302"/>
     <use style="fill:#008000;stroke:#008000;" x="447.10567" xlink:href="#m4a00586b9f" y="381.962617"/>
     <use style="fill:#008000;stroke:#008000;" x="560.29942" xlink:href="#m4a00586b9f" y="382.15762"/>
    </g>
   </g>
   <g id="line2d_61">
    <path clip-path="url(#p4ec5a8e13a)" d="M 337.449224 400.357378 
L 340.986529 394.887431 
L 348.061138 388.6322 
L 362.210357 377.546765 
L 390.508795 364.25553 
L 447.10567 347.103743 
L 560.29942 336.217901 
" style="fill:none;stroke:#0000ff;stroke-linecap:square;stroke-width:1.5;"/>
    <g clip-path="url(#p4ec5a8e13a)">
     <use style="fill:#0000ff;stroke:#0000ff;" x="337.449224" xlink:href="#mf4d81474e0" y="400.357378"/>
     <use style="fill:#0000ff;stroke:#0000ff;" x="340.986529" xlink:href="#mf4d81474e0" y="394.887431"/>
     <use style="fill:#0000ff;stroke:#0000ff;" x="348.061138" xlink:href="#mf4d81474e0" y="388.6322"/>
     <use style="fill:#0000ff;stroke:#0000ff;" x="362.210357" xlink:href="#mf4d81474e0" y="377.546765"/>
     <use style="fill:#0000ff;stroke:#0000ff;" x="390.508795" xlink:href="#mf4d81474e0" y="364.25553"/>
     <use style="fill:#0000ff;stroke:#0000ff;" x="447.10567" xlink:href="#mf4d81474e0" y="347.103743"/>
     <use style="fill:#0000ff;stroke:#0000ff;" x="560.29942" xlink:href="#mf4d81474e0" y="336.217901"/>
    </g>
   </g>
   <g id="line2d_62">
    <path clip-path="url(#p4ec5a8e13a)" d="M 337.449224 399.720532 
L 340.986529 395.300305 
L 348.061138 388.222408 
L 362.210357 376.786561 
L 390.508795 359.65457 
L 447.10567 339.3076 
L 560.29942 319.649533 
" style="fill:none;stroke:#00bfbf;stroke-linecap:square;stroke-width:1.5;"/>
    <g clip-path="url(#p4ec5a8e13a)">
     <use style="fill:#00bfbf;stroke:#00bfbf;stroke-linejoin:bevel;" x="337.449224" xlink:href="#m4e8ac8849e" y="399.720532"/>
     <use style="fill:#00bfbf;stroke:#00bfbf;stroke-linejoin:bevel;" x="340.986529" xlink:href="#m4e8ac8849e" y="395.300305"/>
     <use style="fill:#00bfbf;stroke:#00bfbf;stroke-linejoin:bevel;" x="348.061138" xlink:href="#m4e8ac8849e" y="388.222408"/>
     <use style="fill:#00bfbf;stroke:#00bfbf;stroke-linejoin:bevel;" x="362.210357" xlink:href="#m4e8ac8849e" y="376.786561"/>
     <use style="fill:#00bfbf;stroke:#00bfbf;stroke-linejoin:bevel;" x="390.508795" xlink:href="#m4e8ac8849e" y="359.65457"/>
     <use style="fill:#00bfbf;stroke:#00bfbf;stroke-linejoin:bevel;" x="447.10567" xlink:href="#m4e8ac8849e" y="339.3076"/>
     <use style="fill:#00bfbf;stroke:#00bfbf;stroke-linejoin:bevel;" x="560.29942" xlink:href="#m4e8ac8849e" y="319.649533"/>
    </g>
   </g>
   <g id="line2d_63">
    <path clip-path="url(#p4ec5a8e13a)" d="M 337.449224 399.784402 
L 340.986529 395.172529 
L 348.061138 383.7359 
L 362.210357 364.939048 
L 390.508795 337.842718 
L 447.10567 291.695142 
L 560.29942 222.291966 
" style="fill:none;stroke:#bfbf00;stroke-linecap:square;stroke-width:1.5;"/>
    <g clip-path="url(#p4ec5a8e13a)">
     <use style="fill:#bfbf00;stroke:#bfbf00;stroke-linejoin:miter;" x="337.449224" xlink:href="#m07b3c7f241" y="399.784402"/>
     <use style="fill:#bfbf00;stroke:#bfbf00;stroke-linejoin:miter;" x="340.986529" xlink:href="#m07b3c7f241" y="395.172529"/>
     <use style="fill:#bfbf00;stroke:#bfbf00;stroke-linejoin:miter;" x="348.061138" xlink:href="#m07b3c7f241" y="383.7359"/>
     <use style="fill:#bfbf00;stroke:#bfbf00;stroke-linejoin:miter;" x="362.210357" xlink:href="#m07b3c7f241" y="364.939048"/>
     <use style="fill:#bfbf00;stroke:#bfbf00;stroke-linejoin:miter;" x="390.508795" xlink:href="#m07b3c7f241" y="337.842718"/>
     <use style="fill:#bfbf00;stroke:#bfbf00;stroke-linejoin:miter;" x="447.10567" xlink:href="#m07b3c7f241" y="291.695142"/>
     <use style="fill:#bfbf00;stroke:#bfbf00;stroke-linejoin:miter;" x="560.29942" xlink:href="#m07b3c7f241" y="222.291966"/>
    </g>
   </g>
   <g id="line2d_64">
    <path clip-path="url(#p4ec5a8e13a)" d="M 340.986529 396.000021 
L 348.061138 385.749068 
L 362.210357 366.090584 
L 390.508795 332.40489 
L 447.10567 263.321207 
L 560.29942 140.843808 
" style="fill:none;stroke:#bf00bf;stroke-linecap:square;stroke-width:1.5;"/>
    <g clip-path="url(#p4ec5a8e13a)">
     <use style="fill:#bf00bf;stroke:#bf00bf;stroke-linejoin:miter;" x="340.986529" xlink:href="#mc3e632fd66" y="396.000021"/>
     <use style="fill:#bf00bf;stroke:#bf00bf;stroke-linejoin:miter;" x="348.061138" xlink:href="#mc3e632fd66" y="385.749068"/>
     <use style="fill:#bf00bf;stroke:#bf00bf;stroke-linejoin:miter;" x="362.210357" xlink:href="#mc3e632fd66" y="366.090584"/>
     <use style="fill:#bf00bf;stroke:#bf00bf;stroke-linejoin:miter;" x="390.508795" xlink:href="#mc3e632fd66" y="332.40489"/>
     <use style="fill:#bf00bf;stroke:#bf00bf;stroke-linejoin:miter;" x="447.10567" xlink:href="#mc3e632fd66" y="263.321207"/>
     <use style="fill:#bf00bf;stroke:#bf00bf;stroke-linejoin:miter;" x="560.29942" xlink:href="#mc3e632fd66" y="140.843808"/>
    </g>
   </g>
   <g id="line2d_65">
    <path clip-path="url(#p4ec5a8e13a)" d="M 390.508795 340.092902 
L 447.10567 275.997143 
L 560.29942 155.185948 
" style="fill:none;stroke:#000000;stroke-linecap:square;stroke-width:1.5;"/>
    <defs>
     <path d="M -0 3 
L 3 -3 
L -3 -3 
z
" id="mf07a0ca4c5" style="stroke:#000000;stroke-linejoin:miter;"/>
    </defs>
    <g clip-path="url(#p4ec5a8e13a)">
     <use style="stroke:#000000;stroke-linejoin:miter;" x="390.508795" xlink:href="#mf07a0ca4c5" y="340.092902"/>
     <use style="stroke:#000000;stroke-linejoin:miter;" x="447.10567" xlink:href="#mf07a0ca4c5" y="275.997143"/>
     <use style="stroke:#000000;stroke-linejoin:miter;" x="560.29942" xlink:href="#mf07a0ca4c5" y="155.185948"/>
    </g>
   </g>
   <g id="patch_8">
    <path d="M 334.02246 404.12 
L 334.02246 26.88 
" style="fill:none;stroke:#000000;stroke-linecap:square;stroke-linejoin:miter;stroke-width:0.8;"/>
   </g>
   <g id="patch_9">
    <path d="M 566.04754 404.12 
L 566.04754 26.88 
" style="fill:none;stroke:#000000;stroke-linecap:square;stroke-linejoin:miter;stroke-width:0.8;"/>
   </g>
   <g id="patch_10">
    <path d="M 334.02246 404.12 
L 566.04754 404.12 
" style="fill:none;stroke:#000000;stroke-linecap:square;stroke-linejoin:miter;stroke-width:0.8;"/>
   </g>
   <g id="patch_11">
    <path d="M 334.02246 26.88 
L 566.04754 26.88 
" style="fill:none;stroke:#000000;stroke-linecap:square;stroke-linejoin:miter;stroke-width:0.8;"/>
   </g>
   <g id="text_28">
    <!-- Parcelport mpi -->
    <defs>
     <path d="M 52 44.1875 
Q 55.375 50.25 60.0625 53.125 
Q 64.75 56 71.09375 56 
Q 79.640625 56 84.28125 50.015625 
Q 88.921875 44.046875 88.921875 33.015625 
L 88.921875 0 
L 79.890625 0 
L 79.890625 32.71875 
Q 79.890625 40.578125 77.09375 44.375 
Q 74.3125 48.1875 68.609375 48.1875 
Q 61.625 48.1875 57.5625 43.546875 
Q 53.515625 38.921875 53.515625 30.90625 
L 53.515625 0 
L 44.484375 0 
L 44.484375 32.71875 
Q 44.484375 40.625 41.703125 44.40625 
Q 38.921875 48.1875 33.109375 48.1875 
Q 26.21875 48.1875 22.15625 43.53125 
Q 18.109375 38.875 18.109375 30.90625 
L 18.109375 0 
L 9.078125 0 
L 9.078125 54.6875 
L 18.109375 54.6875 
L 18.109375 46.1875 
Q 21.1875 51.21875 25.484375 53.609375 
Q 29.78125 56 35.6875 56 
Q 41.65625 56 45.828125 52.96875 
Q 50 49.953125 52 44.1875 
" id="DejaVuSans-6d"/>
    </defs>
    <g transform="translate(413.418594 20.88)scale(0.1 -0.1)">
     <use xlink:href="#DejaVuSans-50"/>
     <use x="60.240234" xlink:href="#DejaVuSans-61"/>
     <use x="121.519531" xlink:href="#DejaVuSans-72"/>
     <use x="162.601562" xlink:href="#DejaVuSans-63"/>
     <use x="217.582031" xlink:href="#DejaVuSans-65"/>
     <use x="279.105469" xlink:href="#DejaVuSans-6c"/>
     <use x="306.888672" xlink:href="#DejaVuSans-70"/>
     <use x="370.365234" xlink:href="#DejaVuSans-6f"/>
     <use x="431.546875" xlink:href="#DejaVuSans-72"/>
     <use x="472.660156" xlink:href="#DejaVuSans-74"/>
     <use x="511.869141" xlink:href="#DejaVuSans-20"/>
     <use x="543.65625" xlink:href="#DejaVuSans-6d"/>
     <use x="641.068359" xlink:href="#DejaVuSans-70"/>
     <use x="704.544922" xlink:href="#DejaVuSans-69"/>
    </g>
   </g>
  </g>
  <g id="axes_3">
   <g id="line2d_66"/>
   <g id="line2d_67"/>
   <g id="line2d_68"/>
   <g id="line2d_69"/>
   <g id="line2d_70"/>
   <g id="line2d_71"/>
   <g id="line2d_72"/>
   <g id="text_29">
    <!-- Threads = 12 -->
    <defs>
     <path d="M -0.296875 72.90625 
L 61.375 72.90625 
L 61.375 64.59375 
L 35.5 64.59375 
L 35.5 0 
L 25.59375 0 
L 25.59375 64.59375 
L -0.296875 64.59375 
z
" id="DejaVuSans-54"/>
     <path d="M 54.890625 33.015625 
L 54.890625 0 
L 45.90625 0 
L 45.90625 32.71875 
Q 45.90625 40.484375 42.875 44.328125 
Q 39.84375 48.1875 33.796875 48.1875 
Q 26.515625 48.1875 22.3125 43.546875 
Q 18.109375 38.921875 18.109375 30.90625 
L 18.109375 0 
L 9.078125 0 
L 9.078125 75.984375 
L 18.109375 75.984375 
L 18.109375 46.1875 
Q 21.34375 51.125 25.703125 53.5625 
Q 30.078125 56 35.796875 56 
Q 45.21875 56 50.046875 50.171875 
Q 54.890625 44.34375 54.890625 33.015625 
" id="DejaVuSans-68"/>
     <path d="M 45.40625 46.390625 
L 45.40625 75.984375 
L 54.390625 75.984375 
L 54.390625 0 
L 45.40625 0 
L 45.40625 8.203125 
Q 42.578125 3.328125 38.25 0.953125 
Q 33.9375 -1.421875 27.875 -1.421875 
Q 17.96875 -1.421875 11.734375 6.484375 
Q 5.515625 14.40625 5.515625 27.296875 
Q 5.515625 40.1875 11.734375 48.09375 
Q 17.96875 56 27.875 56 
Q 33.9375 56 38.25 53.625 
Q 42.578125 51.265625 45.40625 46.390625 
M 14.796875 27.296875 
Q 14.796875 17.390625 18.875 11.75 
Q 22.953125 6.109375 30.078125 6.109375 
Q 37.203125 6.109375 41.296875 11.75 
Q 45.40625 17.390625 45.40625 27.296875 
Q 45.40625 37.203125 41.296875 42.84375 
Q 37.203125 48.484375 30.078125 48.484375 
Q 22.953125 48.484375 18.875 42.84375 
Q 14.796875 37.203125 14.796875 27.296875 
" id="DejaVuSans-64"/>
     <path d="M 44.28125 53.078125 
L 44.28125 44.578125 
Q 40.484375 46.53125 36.375 47.5 
Q 32.28125 48.484375 27.875 48.484375 
Q 21.1875 48.484375 17.84375 46.4375 
Q 14.5 44.390625 14.5 40.28125 
Q 14.5 37.15625 16.890625 35.375 
Q 19.28125 33.59375 26.515625 31.984375 
L 29.59375 31.296875 
Q 39.15625 29.25 43.1875 25.515625 
Q 47.21875 21.78125 47.21875 15.09375 
Q 47.21875 7.46875 41.1875 3.015625 
Q 35.15625 -1.421875 24.609375 -1.421875 
Q 20.21875 -1.421875 15.453125 -0.5625 
Q 10.6875 0.296875 5.421875 2 
L 5.421875 11.28125 
Q 10.40625 8.6875 15.234375 7.390625 
Q 20.0625 6.109375 24.8125 6.109375 
Q 31.15625 6.109375 34.5625 8.28125 
Q 37.984375 10.453125 37.984375 14.40625 
Q 37.984375 18.0625 35.515625 20.015625 
Q 33.0625 21.96875 24.703125 23.78125 
L 21.578125 24.515625 
Q 13.234375 26.265625 9.515625 29.90625 
Q 5.8125 33.546875 5.8125 39.890625 
Q 5.8125 47.609375 11.28125 51.796875 
Q 16.75 56 26.8125 56 
Q 31.78125 56 36.171875 55.265625 
Q 40.578125 54.546875 44.28125 53.078125 
" id="DejaVuSans-73"/>
     <path d="M 10.59375 45.40625 
L 73.1875 45.40625 
L 73.1875 37.203125 
L 10.59375 37.203125 
z
M 10.59375 25.484375 
L 73.1875 25.484375 
L 73.1875 17.1875 
L 10.59375 17.1875 
z
" id="DejaVuSans-3d"/>
    </defs>
    <g transform="translate(693.955585 20.88)scale(0.12 -0.12)">
     <use xlink:href="#DejaVuSans-54"/>
     <use x="61.083984" xlink:href="#DejaVuSans-68"/>
     <use x="124.462891" xlink:href="#DejaVuSans-72"/>
     <use x="165.544922" xlink:href="#DejaVuSans-65"/>
     <use x="227.068359" xlink:href="#DejaVuSans-61"/>
     <use x="288.347656" xlink:href="#DejaVuSans-64"/>
     <use x="351.824219" xlink:href="#DejaVuSans-73"/>
     <use x="403.923828" xlink:href="#DejaVuSans-20"/>
     <use x="435.710938" xlink:href="#DejaVuSans-3d"/>
     <use x="519.5" xlink:href="#DejaVuSans-20"/>
     <use x="551.287109" xlink:href="#DejaVuSans-31"/>
     <use x="614.910156" xlink:href="#DejaVuSans-32"/>
    </g>
   </g>
   <g id="legend_1">
    <g id="patch_12">
     <path d="M 626.254921 402.12 
L 706.636171 402.12 
Q 708.236171 402.12 708.236171 400.52 
L 708.236171 272.7225 
Q 708.236171 271.1225 706.636171 271.1225 
L 626.254921 271.1225 
Q 624.654921 271.1225 624.654921 272.7225 
L 624.654921 400.52 
Q 624.654921 402.12 626.254921 402.12 
z
" style="fill:#4c4c4c;opacity:0.5;stroke:#4c4c4c;stroke-linejoin:miter;"/>
    </g>
    <g id="patch_13">
     <path d="M 624.254921 400.12 
L 704.636171 400.12 
Q 706.236171 400.12 706.236171 398.52 
L 706.236171 270.7225 
Q 706.236171 269.1225 704.636171 269.1225 
L 624.254921 269.1225 
Q 622.654921 269.1225 622.654921 270.7225 
L 622.654921 398.52 
Q 622.654921 400.12 624.254921 400.12 
z
" style="fill:#ffffff;opacity:0.8;stroke:#cccccc;stroke-linejoin:miter;"/>
    </g>
    <g id="line2d_73">
     <path d="M 632.254921 282.00125 
L 656.254921 282.00125 
" style="fill:none;stroke:#ff0000;stroke-linecap:square;stroke-width:1.5;"/>
    </g>
    <g id="line2d_74">
     <defs>
      <path d="M -4 0 
L 4 0 
M 0 4 
L 0 -4 
" id="mddf8160c74" style="stroke:#ff0000;"/>
     </defs>
     <g>
      <use style="fill:#ff0000;stroke:#ff0000;" x="644.254921" xlink:href="#mddf8160c74" y="282.00125"/>
     </g>
    </g>
    <g id="text_30">
     <!-- Level 7 -->
     <defs>
      <path d="M 9.8125 72.90625 
L 19.671875 72.90625 
L 19.671875 8.296875 
L 55.171875 8.296875 
L 55.171875 0 
L 9.8125 0 
z
" id="DejaVuSans-4c"/>
      <path d="M 2.984375 54.6875 
L 12.5 54.6875 
L 29.59375 8.796875 
L 46.6875 54.6875 
L 56.203125 54.6875 
L 35.6875 0 
L 23.484375 0 
z
" id="DejaVuSans-76"/>
      <path d="M 8.203125 72.90625 
L 55.078125 72.90625 
L 55.078125 68.703125 
L 28.609375 0 
L 18.3125 0 
L 43.21875 64.59375 
L 8.203125 64.59375 
z
" id="DejaVuSans-37"/>
     </defs>
     <g transform="translate(662.654921 284.80125)scale(0.08 -0.08)">
      <use xlink:href="#DejaVuSans-4c"/>
      <use x="55.697266" xlink:href="#DejaVuSans-65"/>
      <use x="117.220703" xlink:href="#DejaVuSans-76"/>
      <use x="176.400391" xlink:href="#DejaVuSans-65"/>
      <use x="237.923828" xlink:href="#DejaVuSans-6c"/>
      <use x="265.707031" xlink:href="#DejaVuSans-20"/>
      <use x="297.494141" xlink:href="#DejaVuSans-37"/>
     </g>
    </g>
    <g id="line2d_75">
     <path d="M 632.254921 299.34375 
L 656.254921 299.34375 
" style="fill:none;stroke:#008000;stroke-linecap:square;stroke-width:1.5;"/>
    </g>
    <g id="line2d_76">
     <defs>
      <path d="M 0 2 
C 0.530406 2 1.03916 1.789267 1.414214 1.414214 
C 1.789267 1.03916 2 0.530406 2 0 
C 2 -0.530406 1.789267 -1.03916 1.414214 -1.414214 
C 1.03916 -1.789267 0.530406 -2 0 -2 
C -0.530406 -2 -1.03916 -1.789267 -1.414214 -1.414214 
C -1.789267 -1.03916 -2 -0.530406 -2 0 
C -2 0.530406 -1.789267 1.03916 -1.414214 1.414214 
C -1.03916 1.789267 -0.530406 2 0 2 
z
" id="m4534758b73" style="stroke:#008000;"/>
     </defs>
     <g>
      <use style="fill:#008000;stroke:#008000;" x="644.254921" xlink:href="#m4534758b73" y="299.34375"/>
     </g>
    </g>
    <g id="text_31">
     <!-- Level 8 -->
     <defs>
      <path d="M 31.78125 34.625 
Q 24.75 34.625 20.71875 30.859375 
Q 16.703125 27.09375 16.703125 20.515625 
Q 16.703125 13.921875 20.71875 10.15625 
Q 24.75 6.390625 31.78125 6.390625 
Q 38.8125 6.390625 42.859375 10.171875 
Q 46.921875 13.96875 46.921875 20.515625 
Q 46.921875 27.09375 42.890625 30.859375 
Q 38.875 34.625 31.78125 34.625 
M 21.921875 38.8125 
Q 15.578125 40.375 12.03125 44.71875 
Q 8.5 49.078125 8.5 55.328125 
Q 8.5 64.0625 14.71875 69.140625 
Q 20.953125 74.21875 31.78125 74.21875 
Q 42.671875 74.21875 48.875 69.140625 
Q 55.078125 64.0625 55.078125 55.328125 
Q 55.078125 49.078125 51.53125 44.71875 
Q 48 40.375 41.703125 38.8125 
Q 48.828125 37.15625 52.796875 32.3125 
Q 56.78125 27.484375 56.78125 20.515625 
Q 56.78125 9.90625 50.3125 4.234375 
Q 43.84375 -1.421875 31.78125 -1.421875 
Q 19.734375 -1.421875 13.25 4.234375 
Q 6.78125 9.90625 6.78125 20.515625 
Q 6.78125 27.484375 10.78125 32.3125 
Q 14.796875 37.15625 21.921875 38.8125 
M 18.3125 54.390625 
Q 18.3125 48.734375 21.84375 45.5625 
Q 25.390625 42.390625 31.78125 42.390625 
Q 38.140625 42.390625 41.71875 45.5625 
Q 45.3125 48.734375 45.3125 54.390625 
Q 45.3125 60.0625 41.71875 63.234375 
Q 38.140625 66.40625 31.78125 66.40625 
Q 25.390625 66.40625 21.84375 63.234375 
Q 18.3125 60.0625 18.3125 54.390625 
" id="DejaVuSans-38"/>
     </defs>
     <g transform="translate(662.654921 302.14375)scale(0.08 -0.08)">
      <use xlink:href="#DejaVuSans-4c"/>
      <use x="55.697266" xlink:href="#DejaVuSans-65"/>
      <use x="117.220703" xlink:href="#DejaVuSans-76"/>
      <use x="176.400391" xlink:href="#DejaVuSans-65"/>
      <use x="237.923828" xlink:href="#DejaVuSans-6c"/>
      <use x="265.707031" xlink:href="#DejaVuSans-20"/>
      <use x="297.494141" xlink:href="#DejaVuSans-38"/>
     </g>
    </g>
    <g id="line2d_77">
     <path d="M 632.254921 316.68625 
L 656.254921 316.68625 
" style="fill:none;stroke:#0000ff;stroke-linecap:square;stroke-width:1.5;"/>
    </g>
    <g id="line2d_78">
     <defs>
      <path d="M 0 4 
C 1.060812 4 2.078319 3.578535 2.828427 2.828427 
C 3.578535 2.078319 4 1.060812 4 0 
C 4 -1.060812 3.578535 -2.078319 2.828427 -2.828427 
C 2.078319 -3.578535 1.060812 -4 0 -4 
C -1.060812 -4 -2.078319 -3.578535 -2.828427 -2.828427 
C -3.578535 -2.078319 -4 -1.060812 -4 0 
C -4 1.060812 -3.578535 2.078319 -2.828427 2.828427 
C -2.078319 3.578535 -1.060812 4 0 4 
z
" id="m64e2b0bd13" style="stroke:#0000ff;"/>
     </defs>
     <g>
      <use style="fill:#0000ff;stroke:#0000ff;" x="644.254921" xlink:href="#m64e2b0bd13" y="316.68625"/>
     </g>
    </g>
    <g id="text_32">
     <!-- Level 9 -->
     <defs>
      <path d="M 10.984375 1.515625 
L 10.984375 10.5 
Q 14.703125 8.734375 18.5 7.8125 
Q 22.3125 6.890625 25.984375 6.890625 
Q 35.75 6.890625 40.890625 13.453125 
Q 46.046875 20.015625 46.78125 33.40625 
Q 43.953125 29.203125 39.59375 26.953125 
Q 35.25 24.703125 29.984375 24.703125 
Q 19.046875 24.703125 12.671875 31.3125 
Q 6.296875 37.9375 6.296875 49.421875 
Q 6.296875 60.640625 12.9375 67.421875 
Q 19.578125 74.21875 30.609375 74.21875 
Q 43.265625 74.21875 49.921875 64.515625 
Q 56.59375 54.828125 56.59375 36.375 
Q 56.59375 19.140625 48.40625 8.859375 
Q 40.234375 -1.421875 26.421875 -1.421875 
Q 22.703125 -1.421875 18.890625 -0.6875 
Q 15.09375 0.046875 10.984375 1.515625 
M 30.609375 32.421875 
Q 37.25 32.421875 41.125 36.953125 
Q 45.015625 41.5 45.015625 49.421875 
Q 45.015625 57.28125 41.125 61.84375 
Q 37.25 66.40625 30.609375 66.40625 
Q 23.96875 66.40625 20.09375 61.84375 
Q 16.21875 57.28125 16.21875 49.421875 
Q 16.21875 41.5 20.09375 36.953125 
Q 23.96875 32.421875 30.609375 32.421875 
" id="DejaVuSans-39"/>
     </defs>
     <g transform="translate(662.654921 319.48625)scale(0.08 -0.08)">
      <use xlink:href="#DejaVuSans-4c"/>
      <use x="55.697266" xlink:href="#DejaVuSans-65"/>
      <use x="117.220703" xlink:href="#DejaVuSans-76"/>
      <use x="176.400391" xlink:href="#DejaVuSans-65"/>
      <use x="237.923828" xlink:href="#DejaVuSans-6c"/>
      <use x="265.707031" xlink:href="#DejaVuSans-20"/>
      <use x="297.494141" xlink:href="#DejaVuSans-39"/>
     </g>
    </g>
    <g id="line2d_79">
     <path d="M 632.254921 334.02875 
L 656.254921 334.02875 
" style="fill:none;stroke:#00bfbf;stroke-linecap:square;stroke-width:1.5;"/>
    </g>
    <g id="line2d_80">
     <defs>
      <path d="M 0 -4 
L -0.898056 -1.236068 
L -3.804226 -1.236068 
L -1.453085 0.472136 
L -2.351141 3.236068 
L -0 1.527864 
L 2.351141 3.236068 
L 1.453085 0.472136 
L 3.804226 -1.236068 
L 0.898056 -1.236068 
z
" id="mb21832cbfb" style="stroke:#00bfbf;stroke-linejoin:bevel;"/>
     </defs>
     <g>
      <use style="fill:#00bfbf;stroke:#00bfbf;stroke-linejoin:bevel;" x="644.254921" xlink:href="#mb21832cbfb" y="334.02875"/>
     </g>
    </g>
    <g id="text_33">
     <!-- Level 10 -->
     <g transform="translate(662.654921 336.82875)scale(0.08 -0.08)">
      <use xlink:href="#DejaVuSans-4c"/>
      <use x="55.697266" xlink:href="#DejaVuSans-65"/>
      <use x="117.220703" xlink:href="#DejaVuSans-76"/>
      <use x="176.400391" xlink:href="#DejaVuSans-65"/>
      <use x="237.923828" xlink:href="#DejaVuSans-6c"/>
      <use x="265.707031" xlink:href="#DejaVuSans-20"/>
      <use x="297.494141" xlink:href="#DejaVuSans-31"/>
      <use x="361.117188" xlink:href="#DejaVuSans-30"/>
     </g>
    </g>
    <g id="line2d_81">
     <path d="M 632.254921 351.37125 
L 656.254921 351.37125 
" style="fill:none;stroke:#bfbf00;stroke-linecap:square;stroke-width:1.5;"/>
    </g>
    <g id="line2d_82">
     <defs>
      <path d="M 0 -4 
L -4 4 
L 4 4 
z
" id="m9fbfa68893" style="stroke:#bfbf00;stroke-linejoin:miter;"/>
     </defs>
     <g>
      <use style="fill:#bfbf00;stroke:#bfbf00;stroke-linejoin:miter;" x="644.254921" xlink:href="#m9fbfa68893" y="351.37125"/>
     </g>
    </g>
    <g id="text_34">
     <!-- Level 11 -->
     <g transform="translate(662.654921 354.17125)scale(0.08 -0.08)">
      <use xlink:href="#DejaVuSans-4c"/>
      <use x="55.697266" xlink:href="#DejaVuSans-65"/>
      <use x="117.220703" xlink:href="#DejaVuSans-76"/>
      <use x="176.400391" xlink:href="#DejaVuSans-65"/>
      <use x="237.923828" xlink:href="#DejaVuSans-6c"/>
      <use x="265.707031" xlink:href="#DejaVuSans-20"/>
      <use x="297.494141" xlink:href="#DejaVuSans-31"/>
      <use x="361.117188" xlink:href="#DejaVuSans-31"/>
     </g>
    </g>
    <g id="line2d_83">
     <path d="M 632.254921 368.71375 
L 656.254921 368.71375 
" style="fill:none;stroke:#bf00bf;stroke-linecap:square;stroke-width:1.5;"/>
    </g>
    <g id="line2d_84">
     <defs>
      <path d="M -4 4 
L 4 4 
L 4 -4 
L -4 -4 
z
" id="meab48b0bc4" style="stroke:#bf00bf;stroke-linejoin:miter;"/>
     </defs>
     <g>
      <use style="fill:#bf00bf;stroke:#bf00bf;stroke-linejoin:miter;" x="644.254921" xlink:href="#meab48b0bc4" y="368.71375"/>
     </g>
    </g>
    <g id="text_35">
     <!-- Level 12 -->
     <g transform="translate(662.654921 371.51375)scale(0.08 -0.08)">
      <use xlink:href="#DejaVuSans-4c"/>
      <use x="55.697266" xlink:href="#DejaVuSans-65"/>
      <use x="117.220703" xlink:href="#DejaVuSans-76"/>
      <use x="176.400391" xlink:href="#DejaVuSans-65"/>
      <use x="237.923828" xlink:href="#DejaVuSans-6c"/>
      <use x="265.707031" xlink:href="#DejaVuSans-20"/>
      <use x="297.494141" xlink:href="#DejaVuSans-31"/>
      <use x="361.117188" xlink:href="#DejaVuSans-32"/>
     </g>
    </g>
    <g id="line2d_85">
     <path d="M 632.254921 386.05625 
L 656.254921 386.05625 
" style="fill:none;stroke:#000000;stroke-linecap:square;stroke-width:1.5;"/>
    </g>
    <g id="line2d_86">
     <defs>
      <path d="M -0 4 
L 4 -4 
L -4 -4 
z
" id="mf28bf6ea79" style="stroke:#000000;stroke-linejoin:miter;"/>
     </defs>
     <g>
      <use style="stroke:#000000;stroke-linejoin:miter;" x="644.254921" xlink:href="#mf28bf6ea79" y="386.05625"/>
     </g>
    </g>
    <g id="text_36">
     <!-- Level 13 -->
     <g transform="translate(662.654921 388.85625)scale(0.08 -0.08)">
      <use xlink:href="#DejaVuSans-4c"/>
      <use x="55.697266" xlink:href="#DejaVuSans-65"/>
      <use x="117.220703" xlink:href="#DejaVuSans-76"/>
      <use x="176.400391" xlink:href="#DejaVuSans-65"/>
      <use x="237.923828" xlink:href="#DejaVuSans-6c"/>
      <use x="265.707031" xlink:href="#DejaVuSans-20"/>
      <use x="297.494141" xlink:href="#DejaVuSans-31"/>
      <use x="361.117188" xlink:href="#DejaVuSans-33"/>
     </g>
    </g>
   </g>
  </g>
 </g>
 <defs>
  <clipPath id="p41521a1c4c">
   <rect height="377.24" width="232.025079" x="49.39" y="26.88"/>
  </clipPath>
  <clipPath id="p4ec5a8e13a">
   <rect height="377.24" width="232.025079" x="334.02246" y="26.88"/>
  </clipPath>
 </defs>
</svg>
